<svg width="277" height="292" viewBox="0 0 277 292" fill="none" xmlns="http://www.w3.org/2000/svg">
<path d="M207.07 197.53C207.15 197.23 207.343 197.11 207.65 197.17C213.803 198.297 220.38 197.703 227.38 195.39C230.28 194.43 234.216 192.23 239.19 188.79C242.836 186.27 246.67 183.467 250.69 180.38C254.85 177.18 258.116 173.467 260.49 169.24C261.903 166.733 263.51 164.36 265.31 162.12C270.02 156.25 272.94 148.62 274.99 141.2C275.843 138.133 276.003 135.047 275.47 131.94C273.3 119.33 270.19 107.79 259.55 99.63C259.46 99.5616 259.385 99.4758 259.329 99.3779C259.274 99.2799 259.238 99.1717 259.225 99.0597C259.212 98.9477 259.222 98.8343 259.253 98.7261C259.285 98.6179 259.338 98.5172 259.41 98.43C266.13 90.32 267.83 77.93 263.45 68.34C258.17 56.81 250.82 42.68 237.53 39.32C234.136 38.4667 230.893 37.5633 227.8 36.61C219.23 33.97 210.84 34.57 202.23 34.8C197.523 34.92 192.853 35.99 188.22 38.01C182.9 40.32 178.67 41.99 173.75 42.67C166.67 43.6567 159.003 43.5067 150.75 42.22C148.1 41.81 145.71 41.73 143.76 39.69C131.01 26.35 117.03 13.15 100.34 5.99C93.2464 2.94333 86.3331 1.49 79.5998 1.63C73.1264 1.76333 66.0498 2.98 58.3698 5.28C52.9298 6.9 47.1464 9.69667 41.0198 13.67C33.8198 18.3367 27.8964 22.8033 23.2498 27.07C8.53643 40.6033 1.13976 58.1067 1.05976 79.58C1.0531 81.3467 1.21976 83.16 1.55976 85.02C2.33976 89.23 2.84976 93.53 3.94976 97.68C4.44976 99.5733 4.88643 101.523 5.25976 103.53C9.22976 124.72 28.1798 142.24 49.1498 144.55C49.2804 144.564 49.4066 144.605 49.5202 144.671C49.6337 144.737 49.732 144.826 49.8085 144.933C49.885 145.04 49.9381 145.162 49.9642 145.29C49.9902 145.419 49.9887 145.552 49.9598 145.68C45.9931 163.867 42.8998 182.067 40.6798 200.28C39.8198 207.37 39.2798 214.58 38.4598 221.86C37.4498 230.86 37.1898 240.21 36.5398 249.49C36.3731 251.87 36.4298 254.51 36.7098 257.41C36.8098 258.45 37.7198 259.61 38.4398 260.33C43.2064 265.05 49.1864 269.047 56.3798 272.32C73.6064 280.16 91.6564 285.067 110.53 287.04C116.91 287.7 123.1 288.09 129.2 289.03C136.06 290.083 143.266 290.55 150.82 290.43C166.946 290.177 183.083 288.413 199.23 285.14C201.376 284.707 202.363 283.463 202.19 281.41C200.95 266.46 201.08 250.81 201.41 236.55C201.71 223.357 203.596 210.35 207.07 197.53Z" stroke="#124B1C" stroke-width="2"/>
<path d="M224.48 171.47C224.713 172.023 224.61 172.527 224.17 172.98C219.95 177.32 214.966 180.117 209.22 181.37C208.673 181.49 208.466 181.82 208.6 182.36C209.7 186.833 211.603 190.267 214.31 192.66C214.631 192.941 215.018 193.136 215.434 193.225C215.851 193.314 216.283 193.295 216.69 193.17L224.54 190.75C224.98 190.617 225.083 190.35 224.85 189.95C222.65 186.263 221.916 182.283 222.65 178.01C222.696 177.763 222.836 177.597 223.07 177.51C223.17 177.47 223.27 177.467 223.37 177.5C223.696 177.613 223.896 177.84 223.97 178.18C224.776 181.847 225.95 185.23 227.49 188.33C227.586 188.522 227.745 188.676 227.94 188.765C228.135 188.855 228.353 188.874 228.56 188.82C234.053 187.353 238.853 184.77 242.96 181.07C242.991 181.042 243.016 181.007 243.033 180.969C243.051 180.931 243.06 180.889 243.061 180.847C243.062 180.805 243.055 180.763 243.039 180.724C243.023 180.685 243 180.65 242.97 180.62C236.78 174.4 236.1 164.54 234.16 156.49C234.144 156.423 234.142 156.354 234.154 156.287C234.166 156.22 234.193 156.156 234.231 156.099C234.27 156.042 234.32 155.995 234.378 155.959C234.437 155.923 234.502 155.899 234.57 155.89L234.87 155.85C234.99 155.837 235.07 155.89 235.11 156.01C237.63 163.84 239.67 171.98 244.56 178.71C244.615 178.786 244.687 178.849 244.769 178.895C244.851 178.942 244.941 178.969 245.035 178.977C245.128 178.985 245.221 178.972 245.308 178.94C245.396 178.907 245.475 178.856 245.54 178.79L250.44 173.95C250.733 173.663 250.783 173.337 250.59 172.97C249.403 170.643 248.553 168.17 248.04 165.55C246.96 160.05 245.13 155.1 242.98 150.13C242.113 148.13 242.5 147.843 244.14 149.27C249.74 154.11 252.26 163.85 252.63 170.94C252.632 170.957 252.638 170.973 252.648 170.986C252.658 170.999 252.671 171.01 252.686 171.016C252.7 171.022 252.716 171.024 252.731 171.021C252.746 171.019 252.759 171.011 252.77 171L257.21 166.99C257.356 166.857 257.42 166.69 257.4 166.49C256.393 157.31 254.02 149.267 250.28 142.36C250.214 142.242 250.195 142.103 250.227 141.97C250.258 141.837 250.337 141.72 250.45 141.64L250.73 141.45C250.943 141.297 251.126 141.33 251.28 141.55C255.64 148.05 258.4 155.257 259.56 163.17C259.666 163.897 259.906 163.943 260.28 163.31L261.92 160.54C262.14 160.167 262.193 159.767 262.08 159.34C261.32 156.473 260.59 153.59 259.89 150.69C258.316 144.15 255.743 137.537 252.17 130.85C252.145 130.805 252.131 130.755 252.127 130.703C252.124 130.652 252.131 130.6 252.149 130.551C252.167 130.502 252.195 130.457 252.231 130.419C252.267 130.381 252.311 130.351 252.36 130.33L252.6 130.24C252.778 130.17 252.975 130.163 253.159 130.221C253.343 130.28 253.502 130.399 253.61 130.56C258.963 138.48 262.333 146.653 263.72 155.08C263.84 155.84 264.113 155.897 264.54 155.25C265.32 154.063 265.656 152.81 265.55 151.49C264.79 141.903 261.96 132.983 257.06 124.73C255.44 122 254.1 119.08 252.91 116.18C252.796 115.907 252.78 115.617 252.86 115.31C252.878 115.231 252.918 115.159 252.974 115.101C253.031 115.043 253.103 115.002 253.181 114.983C253.26 114.963 253.343 114.965 253.42 114.99C253.497 115.014 253.566 115.059 253.62 115.12C260.093 122.393 264.656 130.523 267.31 139.51C267.64 140.62 267.61 141.6 267.79 142.73C268.196 145.357 268.583 145.353 268.95 142.72C269.49 138.793 269.966 134.837 270.38 130.85C270.77 127.12 270.67 123.24 269.28 119.7C265.84 110.88 259.696 103.5 250.85 97.56C250.343 97.22 250.2 96.7667 250.42 96.2L250.57 95.8C250.79 95.2333 251.176 95.0733 251.73 95.32L255.84 97.13C255.999 97.1992 256.178 97.2068 256.344 97.1516C256.51 97.0963 256.651 96.9819 256.74 96.83C259.866 91.3567 261.063 85.36 260.33 78.84C259.75 73.6133 258.75 69.0567 257.33 65.17C255.396 59.87 252.243 55.2833 247.87 51.41C243.85 47.85 238.97 45.17 234.36 42.39C232.5 41.2767 230.383 40.56 228.01 40.24C221.503 39.3733 214.61 39.1967 207.33 39.71C203.23 40 199.26 41.13 195.2 41.79C191.39 42.42 187.52 42.12 183.83 43.34C179.596 44.74 175.343 45.8367 171.07 46.63C164.55 47.8433 157.706 47.5267 150.54 45.68C149.76 45.4733 149.656 45.6533 150.23 46.22C154.88 50.75 159.85 55.35 166.52 56.37C167.42 56.5033 167.733 57 167.46 57.86C167.4 58.0413 167.289 58.2014 167.14 58.3204C166.99 58.4394 166.81 58.5123 166.62 58.53C159.13 59.17 151.6 53.34 145.96 48.19C135.62 38.7433 124.853 28.9667 113.66 18.86C105.773 11.74 96.2162 7.44 84.9896 5.96C82.3429 5.61333 79.5762 5.69333 76.6896 6.2C69.7829 7.42 63.5529 9.01 57.9996 10.97C53.4329 12.57 49.0662 14.2567 44.8996 16.03C30.0696 22.32 16.1996 38.86 10.5196 54.32C8.51957 59.76 7.47624 65.7 7.38957 72.14C7.24957 82.2467 7.5229 91.3167 8.20957 99.35C8.9229 107.737 11.7029 114.987 16.5496 121.1C24.3896 131.01 35.8096 138.26 48.5796 140.72C54.2662 141.813 59.6196 142.823 64.6396 143.75C66.1596 144.03 67.6696 144.213 69.1696 144.3C69.5762 144.32 69.6529 144.173 69.3996 143.86C65.4529 138.953 61.7829 132.857 58.3896 125.57C57.3996 123.44 57.2796 120.99 57.0196 118.7C56.8062 116.793 56.4629 114.89 55.9896 112.99C53.3696 102.49 51.7896 92.8 55.3796 82.26C55.6929 81.3333 56.1996 80.6033 56.8996 80.07C57.2596 79.8033 57.6496 79.78 58.0696 80C58.2289 80.0823 58.3559 80.2158 58.4303 80.3791C58.5047 80.5423 58.522 80.7257 58.4796 80.9C57.6529 84.1667 57.2329 88.3433 57.2196 93.43C57.1996 101.017 57.8562 107.377 59.1896 112.51C59.9196 115.33 61.1996 117.53 62.5096 120.03C63.4496 121.823 64.2596 123.72 64.9396 125.72C66.6729 130.847 69.3096 136.007 72.8496 141.2C74.5696 143.73 76.1596 146.48 78.7696 148.11C86.9896 153.24 95.7796 158.4 105.78 159C112.693 159.413 119.043 159.527 124.83 159.34C125.81 159.307 125.923 158.98 125.17 158.36C115.13 150.07 109.39 136.45 107 123.88C105.74 117.28 104.34 109.48 104.9 102.68C104.911 102.536 104.962 102.399 105.047 102.282C105.132 102.166 105.248 102.075 105.381 102.019C105.515 101.964 105.662 101.945 105.806 101.967C105.951 101.988 106.087 102.048 106.2 102.14C106.613 102.48 106.863 102.94 106.95 103.52C108.41 113.707 111.016 123.367 114.77 132.5C119.42 143.81 127.85 156.08 139.37 160.78C148.29 164.43 160.26 166.51 168.06 159.23C168.386 158.923 168.43 158.58 168.19 158.2C166.29 155.2 164.413 152.06 162.56 148.78C160.66 145.42 160.91 141.1 159.82 137.37C158.66 133.43 157.62 129.63 156.7 125.97C155.613 121.65 155.146 116.263 155.3 109.81C155.326 108.843 155.793 108.39 156.7 108.45C156.978 108.467 157.243 108.578 157.45 108.765C157.657 108.952 157.795 109.204 157.84 109.48C159 116.6 160.273 124.02 161.66 131.74C162.16 134.52 163.32 137.95 164.84 140.33C166.33 142.65 167.77 144.98 168.6 147.62C170.16 152.55 173.09 156.34 175.54 160.77C177.22 163.82 179.62 166.29 182.58 168.09C188.89 171.95 193.5 177.2 201.43 176.79C207.156 176.497 212.656 175.277 217.93 173.13C219.763 172.383 221.503 171.65 223.15 170.93C223.272 170.876 223.404 170.847 223.538 170.845C223.672 170.843 223.805 170.868 223.929 170.919C224.053 170.969 224.166 171.044 224.26 171.138C224.355 171.233 224.429 171.346 224.48 171.47Z" stroke="#124B1C" stroke-width="2"/>
<path d="M186.47 250.43C189.343 250.383 192.236 250.173 195.15 249.8C195.483 249.753 195.66 249.563 195.68 249.23L195.93 245.72C195.95 245.367 195.786 245.21 195.44 245.25C191.82 245.657 188.096 245.443 184.27 244.61C183.956 244.543 183.773 244.667 183.72 244.98C183.326 247.347 183.123 249.677 183.11 251.97C183.076 260.97 182.896 270.777 182.57 281.39C182.564 281.551 182.525 281.708 182.455 281.853C182.385 281.998 182.286 282.126 182.164 282.231C182.041 282.335 181.899 282.413 181.745 282.459C181.591 282.506 181.429 282.52 181.27 282.5C181.156 282.48 181.033 282.463 180.9 282.45C179.933 282.323 179.38 281.78 179.24 280.82C177.806 271.32 177.846 262.083 179.36 253.11C180.82 244.4 180.9 235.77 182.49 227.1C184.363 216.927 186.423 207.333 188.67 198.32C190.23 192.073 192.62 186.243 195.84 180.83C196.08 180.43 195.973 180.177 195.52 180.07C190.866 179.023 186.576 177.163 182.65 174.49C182.256 174.223 182.033 174.327 181.98 174.8C181.2 181.907 180.063 188.027 178.57 193.16C176.343 200.827 174.86 206.32 174.12 209.64C171.913 219.533 169.666 229.81 167.38 240.47C166.5 244.59 166.05 248.77 165.92 252.86C165.613 262.673 165.266 272.423 164.88 282.11C164.868 282.387 164.765 282.652 164.587 282.863C164.41 283.073 164.167 283.216 163.9 283.27C162.666 283.517 161.943 283.043 161.73 281.85C159.81 270.97 160.62 260.71 162.63 249.69C163.21 246.477 163.703 242.673 164.11 238.28C164.89 229.73 166.47 220.69 168.28 212C169.406 206.587 170.58 200.93 171.8 195.03C172.98 189.317 174.516 184.057 176.41 179.25C177.496 176.51 178.57 174.247 179.63 172.46C179.876 172.047 179.836 171.66 179.51 171.3L172.47 163.66C172.308 163.486 172.087 163.379 171.852 163.36C171.616 163.341 171.383 163.413 171.2 163.56C166.706 167.1 162.013 168.853 157.12 168.82C156.566 168.82 156.436 169.053 156.73 169.52C157.09 170.1 157.19 171.08 157.15 171.73C156.69 179.55 155.62 187.223 153.94 194.75C152.64 200.557 151.453 206.577 150.38 212.81C148.646 222.83 146.776 233.083 144.77 243.57C144.47 245.157 144.293 246.873 144.24 248.72C143.906 260.307 142.83 271.41 141.01 282.03C140.954 282.345 140.806 282.636 140.585 282.864C140.364 283.092 140.08 283.248 139.77 283.31C139.203 283.43 138.716 283.303 138.31 282.93C138.043 282.683 137.903 282.363 137.89 281.97C137.596 272.79 138.19 264.117 139.67 255.95C140.623 250.683 141.336 245.627 141.81 240.78C143.576 222.907 145.95 205.527 148.93 188.64C150.05 182.333 151.856 175.977 154.35 169.57C154.483 169.23 154.363 169.05 153.99 169.03C145.73 168.63 137.716 166.203 129.95 161.75C129.828 161.682 129.693 161.642 129.556 161.635C129.419 161.629 129.283 161.654 129.16 161.71C122.84 164.503 116.04 165.38 108.76 164.34C104.63 163.75 100.67 162.12 96.5697 161.27C93.4497 160.63 90.4397 159.59 87.3797 158.61C85.4397 157.983 83.5697 157.127 81.7697 156.04C78.7697 154.23 76.8697 151.46 74.5597 148.93C73.9145 148.227 73.0377 147.779 72.0897 147.67L53.1497 145.52C53.0317 145.506 52.913 145.539 52.8193 145.612C52.7256 145.685 52.6647 145.792 52.6497 145.91C49.4897 166.797 46.3963 187.727 43.3697 208.7C42.2397 216.5 41.4697 224.39 40.8097 232.08C40.2763 238.233 40.343 244.463 41.0097 250.77C41.2797 253.28 41.6297 255.86 43.8097 257.46C47.9763 260.52 51.7863 263.093 55.2397 265.18C55.2843 265.209 55.3362 265.226 55.3897 265.227C55.4431 265.227 55.496 265.213 55.5425 265.185C55.589 265.157 55.6274 265.117 55.6533 265.068C55.6793 265.02 55.6919 264.965 55.6897 264.91C55.2897 257.65 55.1897 250.48 56.2297 243.07C57.5897 233.3 58.6797 224.77 59.3497 213.94C60.0397 202.73 61.5697 193.21 62.7297 181.22C63.6497 171.747 65.3663 162.56 67.8797 153.66C68.173 152.633 68.7263 152.033 69.5397 151.86C69.7744 151.809 70.0176 151.812 70.2512 151.868C70.4849 151.925 70.7029 152.033 70.8893 152.186C71.0756 152.339 71.2255 152.532 71.3277 152.75C71.4299 152.969 71.4818 153.208 71.4797 153.45C71.3797 161.87 70.583 170.167 69.0897 178.34C68.283 182.76 67.573 187.077 66.9597 191.29C66.3063 195.803 65.6797 200.177 65.0797 204.41C64.3997 209.203 63.6097 214.243 62.7097 219.53C61.6563 225.717 61.083 230.793 60.9897 234.76C60.7497 244.5 60.1463 254.487 59.1797 264.72C59.1097 265.41 58.8797 266.02 58.6297 266.65C58.483 267.017 58.5863 267.287 58.9397 267.46C66.9263 271.44 75.0863 274.633 83.4197 277.04C94.2063 280.147 105.46 282.577 117.18 284.33C121.113 284.917 124.813 285.217 128.28 285.23C138.5 285.27 149.323 285.243 160.75 285.15C171.63 285.057 183.406 284.013 196.08 282.02C196.693 281.92 197.296 281.703 197.89 281.37C198.196 281.197 198.336 280.933 198.31 280.58L197.89 275.39C197.856 275.003 197.653 274.863 197.28 274.97C194.586 275.79 191.92 276.383 189.28 276.75C188.106 276.91 187.07 276.637 186.17 275.93C185.883 275.703 185.84 275.32 186.04 274.78C186.096 274.636 186.183 274.506 186.295 274.399C186.408 274.292 186.542 274.21 186.69 274.16L196.34 271.05C196.57 270.975 196.767 270.822 196.896 270.618C197.026 270.413 197.08 270.17 197.05 269.93L196.81 268.08C196.763 267.72 196.56 267.557 196.2 267.59C192.76 267.89 189.3 267.86 185.82 267.5C185.658 267.481 185.505 267.415 185.381 267.31C185.256 267.205 185.165 267.066 185.12 266.91C185.075 266.755 185.078 266.59 185.127 266.436C185.177 266.283 185.272 266.149 185.4 266.05C187.33 264.55 193.54 264.54 195.94 264.33C196.01 264.324 196.079 264.303 196.141 264.271C196.204 264.238 196.259 264.193 196.304 264.139C196.349 264.085 196.382 264.023 196.402 263.956C196.422 263.889 196.428 263.819 196.42 263.75L196.06 260.41C196.043 260.258 195.971 260.116 195.857 260.012C195.744 259.907 195.595 259.846 195.44 259.84L186.83 259.59C186.756 259.588 186.683 259.57 186.616 259.538C186.549 259.506 186.488 259.461 186.439 259.405C186.389 259.349 186.352 259.283 186.328 259.212C186.304 259.141 186.294 259.065 186.3 258.99L186.32 258.71C186.336 258.486 186.435 258.275 186.597 258.117C186.758 257.958 186.973 257.864 187.2 257.85L195.52 257.33C195.74 257.317 195.85 257.2 195.85 256.98L195.76 252.6C195.76 252.433 195.676 252.367 195.51 252.4C191.556 253.127 188.44 252.91 186.16 251.75C184.493 250.897 184.596 250.457 186.47 250.43Z" stroke="#124B1C" stroke-width="2"/>
<path d="M198.49 181.2C197.736 187.4 196.53 193.25 194.87 198.75C194.776 199.063 194.89 199.26 195.21 199.34C197.623 199.947 200.026 200.733 202.42 201.7C202.457 201.714 202.497 201.721 202.537 201.72C202.577 201.718 202.616 201.709 202.652 201.692C202.689 201.675 202.721 201.652 202.748 201.622C202.775 201.592 202.796 201.558 202.81 201.52L204.81 196C204.876 195.807 204.813 195.68 204.62 195.62C202.48 194.94 200.626 193.517 199.06 191.35C198.66 190.803 198.676 190.273 199.11 189.76C199.336 189.5 199.583 189.477 199.85 189.69L205.29 194.11C205.55 194.33 205.85 194.43 206.19 194.41L209.47 194.22C209.525 194.216 209.577 194.197 209.622 194.164C209.666 194.132 209.701 194.087 209.721 194.035C209.74 193.984 209.745 193.928 209.735 193.874C209.724 193.82 209.698 193.77 209.66 193.73C206.56 190.543 205.183 186.697 205.53 182.19C205.535 182.109 205.51 182.028 205.458 181.963C205.407 181.899 205.332 181.855 205.25 181.84L198.84 180.92C198.633 180.893 198.516 180.987 198.49 181.2Z" stroke="#124B1C" stroke-width="2"/>
<path d="M201.73 204.61C201.746 204.544 201.742 204.475 201.717 204.412C201.692 204.349 201.647 204.296 201.59 204.26L194.9 200.09C194.857 200.063 194.809 200.047 194.759 200.042C194.709 200.038 194.658 200.045 194.612 200.063C194.565 200.082 194.523 200.111 194.49 200.149C194.456 200.186 194.432 200.231 194.42 200.28L192.17 208.07C192.147 208.147 192.153 208.23 192.189 208.302C192.224 208.374 192.285 208.431 192.36 208.46L199.64 211.39C199.682 211.407 199.728 211.415 199.774 211.413C199.819 211.411 199.864 211.399 199.905 211.378C199.946 211.357 199.981 211.328 200.01 211.292C200.038 211.256 200.059 211.214 200.07 211.17L201.73 204.61Z" stroke="#124B1C" stroke-width="2"/>
<path d="M191.75 210.44C191.704 210.418 191.653 210.406 191.602 210.406C191.551 210.406 191.5 210.417 191.454 210.439C191.408 210.461 191.368 210.494 191.336 210.534C191.304 210.573 191.281 210.62 191.27 210.67L189.71 217.34C189.699 217.385 189.698 217.431 189.707 217.476C189.715 217.521 189.732 217.564 189.757 217.603C189.782 217.641 189.815 217.674 189.853 217.699C189.892 217.724 189.935 217.742 189.98 217.75L198 219.15C198.087 219.165 198.177 219.145 198.25 219.094C198.322 219.044 198.373 218.967 198.39 218.88L199.25 214.29C199.263 214.216 199.252 214.14 199.218 214.073C199.183 214.006 199.128 213.952 199.06 213.92L191.75 210.44Z" stroke="#124B1C" stroke-width="2"/>
<path d="M189.09 219.51L187.39 227.24C187.382 227.273 187.382 227.308 187.388 227.342C187.394 227.376 187.407 227.408 187.425 227.437C187.444 227.465 187.468 227.49 187.496 227.51C187.524 227.529 187.556 227.543 187.59 227.55L188.01 227.65C189.132 227.897 190.251 228.106 191.303 228.266C192.355 228.426 193.318 228.534 194.139 228.583C194.96 228.633 195.622 228.622 196.087 228.553C196.552 228.484 196.811 228.357 196.85 228.18L198.07 222.63C198.111 222.453 197.931 222.229 197.538 221.971C197.146 221.713 196.549 221.426 195.783 221.126C195.017 220.826 194.096 220.519 193.072 220.223C192.049 219.927 190.944 219.647 189.82 219.4L189.4 219.31C189.366 219.303 189.332 219.302 189.298 219.308C189.264 219.314 189.232 219.327 189.203 219.345C189.174 219.364 189.15 219.388 189.13 219.416C189.111 219.445 189.097 219.476 189.09 219.51Z" stroke="#124B1C" stroke-width="2"/>
<path d="M187.19 229.29C187.147 229.281 187.103 229.281 187.06 229.289C187.018 229.298 186.977 229.315 186.941 229.339C186.904 229.363 186.873 229.394 186.849 229.43C186.825 229.467 186.808 229.507 186.8 229.55L185.81 234.7C185.801 234.746 185.803 234.794 185.814 234.84C185.825 234.886 185.846 234.929 185.876 234.966C185.905 235.003 185.942 235.033 185.984 235.054C186.026 235.076 186.073 235.088 186.12 235.09L196 235.54C196.044 235.543 196.088 235.537 196.13 235.522C196.172 235.507 196.21 235.484 196.243 235.454C196.275 235.424 196.302 235.388 196.32 235.348C196.338 235.308 196.349 235.264 196.35 235.22L196.56 231.52C196.564 231.442 196.54 231.364 196.492 231.302C196.445 231.24 196.376 231.197 196.3 231.18L187.19 229.29Z" stroke="#124B1C" stroke-width="2"/>
<path d="M195.73 238.23C192.55 238.45 188.98 237.97 186.06 236.62C185.667 236.44 185.423 236.557 185.33 236.97L184.02 242.77C184.007 242.83 184.008 242.892 184.023 242.951C184.039 243.01 184.069 243.064 184.11 243.109C184.151 243.155 184.203 243.189 184.26 243.21C184.318 243.231 184.379 243.238 184.44 243.23C188.487 242.73 192.213 242.833 195.62 243.54C195.827 243.58 195.933 243.497 195.94 243.29L196.08 238.57C196.081 238.524 196.073 238.478 196.056 238.436C196.039 238.393 196.013 238.355 195.98 238.323C195.947 238.291 195.908 238.266 195.865 238.25C195.822 238.234 195.776 238.227 195.73 238.23Z" stroke="#124B1C" stroke-width="2"/>
<path d="M72.0098 21.87L61.8598 22.83C61.8269 22.8325 61.7949 22.8415 61.7655 22.8565C61.7361 22.8714 61.71 22.8921 61.6886 22.9172C61.6672 22.9422 61.651 22.9713 61.6409 23.0027C61.6308 23.0341 61.627 23.0671 61.6298 23.1L61.7098 23.91C61.7455 24.2892 61.9143 24.6521 62.2066 24.9779C62.4988 25.3037 62.9088 25.5861 63.413 25.809C63.9172 26.0319 64.5059 26.1908 65.1453 26.2768C65.7848 26.3627 66.4625 26.374 67.1398 26.31L67.4798 26.28C68.1575 26.2157 68.8215 26.0772 69.4337 25.8724C70.0458 25.6677 70.5942 25.4007 71.0475 25.0868C71.5007 24.7729 71.8499 24.4182 72.0751 24.043C72.3002 23.6677 72.397 23.2793 72.3598 22.9L72.2798 22.09C72.2722 22.0254 72.2398 21.9663 72.1894 21.9252C72.139 21.8842 72.0745 21.8644 72.0098 21.87Z" stroke="#124B1C" stroke-width="2"/>
<path d="M87.6598 25.39C87.6598 25.1576 87.614 24.9274 87.5251 24.7127C87.4361 24.4979 87.3058 24.3028 87.1414 24.1384C86.977 23.9741 86.7819 23.8437 86.5672 23.7547C86.3524 23.6658 86.1223 23.62 85.8898 23.62H79.5898C79.3574 23.62 79.1272 23.6658 78.9125 23.7547C78.6977 23.8437 78.5026 23.9741 78.3382 24.1384C78.1739 24.3028 78.0435 24.4979 77.9546 24.7127C77.8656 24.9274 77.8198 25.1576 77.8198 25.39V25.59C77.8198 25.8224 77.8656 26.0526 77.9546 26.2673C78.0435 26.4821 78.1739 26.6772 78.3382 26.8416C78.5026 27.0059 78.6977 27.1363 78.9125 27.2253C79.1272 27.3142 79.3574 27.36 79.5898 27.36H85.8898C86.3593 27.36 86.8095 27.1735 87.1414 26.8416C87.4733 26.5096 87.6598 26.0594 87.6598 25.59V25.39Z" stroke="#124B1C" stroke-width="2"/>
<path d="M77.1199 31.9154C77.2939 31.5283 77.2531 31.0639 77.0066 30.6241C76.7602 30.1844 76.3282 29.8054 75.8056 29.5706C75.5469 29.4543 75.2737 29.3769 75.0017 29.3428C74.7297 29.3088 74.4642 29.3186 74.2204 29.3719C73.9765 29.4252 73.7591 29.5209 73.5805 29.6535C73.4019 29.7861 73.2657 29.9529 73.1795 30.1446C73.0056 30.5317 73.0463 30.9961 73.2928 31.4359C73.5393 31.8756 73.9713 32.2546 74.4938 32.4894C74.7526 32.6057 75.0257 32.6831 75.2977 32.7172C75.5697 32.7512 75.8353 32.7414 76.0791 32.6881C76.323 32.6348 76.5404 32.5391 76.719 32.4065C76.8976 32.2739 77.0338 32.1071 77.1199 31.9154Z" stroke="#124B1C" stroke-width="2"/>
<path d="M27.9797 114.51C30.2197 118.9 32.0597 123 36.0497 125.99C36.5297 126.35 37.003 126.343 37.4697 125.97C37.563 125.897 37.6197 125.803 37.6397 125.69C37.7663 124.797 37.513 124.01 36.8797 123.33C33.9663 120.217 31.4697 116.84 29.3897 113.2C29.3185 113.078 29.2021 112.988 29.0656 112.951C28.9291 112.913 28.7833 112.931 28.6597 113L28.3797 113.16C28.1537 113.29 27.9864 113.502 27.912 113.753C27.8376 114.004 27.8618 114.275 27.9797 114.51Z" stroke="#124B1C" stroke-width="2"/>
<path d="M47.1596 123.41C44.6329 122.103 42.7396 120.227 41.4796 117.78C41.2462 117.327 40.9029 116.977 40.4496 116.73C39.8629 116.41 39.3396 116.553 38.8796 117.16C38.7667 117.31 38.6878 117.483 38.6481 117.666C38.6083 117.849 38.6089 118.038 38.6496 118.22C39.6496 122.6 43.6496 127.56 48.5496 127.9C48.975 127.931 49.3968 127.803 49.7332 127.541C50.0695 127.278 50.2963 126.9 50.3696 126.48C50.4829 125.8 50.2229 125.25 49.5896 124.83C48.8296 124.323 48.0196 123.85 47.1596 123.41Z" stroke="#124B1C" stroke-width="2"/>
<path d="M234.73 183.77C234.863 183.99 235.056 184.117 235.31 184.15C235.523 184.17 235.723 184.123 235.91 184.01C236.476 183.67 236.636 183.193 236.39 182.58C234.103 176.9 232.33 171.14 231.07 165.3C231.052 165.22 231.012 165.146 230.955 165.088C230.898 165.029 230.826 164.988 230.747 164.969C230.668 164.95 230.586 164.954 230.51 164.981C230.434 165.008 230.368 165.056 230.32 165.12C230.033 165.48 229.866 165.887 229.82 166.34C229.293 171.433 230.93 177.243 234.73 183.77Z" stroke="#124B1C" stroke-width="2"/>
<path d="M82.4398 189.18C81.6498 201.69 79.6798 214.43 79.5798 226.88C79.5464 231.84 79.1798 236.53 78.4798 240.95C76.7598 251.86 76.2698 261.91 76.9098 272.84C76.9564 273.693 77.4131 274.193 78.2798 274.34C78.4551 274.369 78.6344 274.362 78.8073 274.321C78.9801 274.28 79.1433 274.206 79.2873 274.102C79.4313 273.998 79.5533 273.866 79.6464 273.715C79.7395 273.564 79.8018 273.395 79.8298 273.22C81.2598 264.16 81.8498 255.77 81.8398 246.27C81.8331 239.783 82.3364 233.323 83.3498 226.89C85.4698 213.45 86.6198 199.92 88.7298 186.51C89.9764 178.563 90.4498 170.49 90.1498 162.29C90.1421 162.075 90.0862 161.865 89.9861 161.675C89.8861 161.485 89.7445 161.32 89.5722 161.193C89.3999 161.066 89.2012 160.98 88.9912 160.941C88.7811 160.903 88.5653 160.912 88.3598 160.97C87.5731 161.183 87.0664 161.737 86.8398 162.63C84.4331 171.943 82.9664 180.793 82.4398 189.18Z" stroke="#124B1C" stroke-width="2"/>
<path d="M116.48 281.9C116.486 282.002 116.523 282.099 116.585 282.181C116.647 282.263 116.732 282.325 116.83 282.36C117.437 282.58 118.057 282.63 118.69 282.51C118.827 282.484 118.953 282.417 119.05 282.316C119.146 282.216 119.209 282.088 119.23 281.95C120.73 272.057 121.593 262.287 121.82 252.64C121.99 245.52 123.32 238.54 124.69 231.71C125.67 226.817 126.647 221.657 127.62 216.23C129.407 206.29 131.467 196.27 133.8 186.17C134.507 183.123 135.337 176.947 136.29 167.64C136.322 167.321 136.256 166.997 136.1 166.71C135.647 165.897 134.97 165.587 134.07 165.78C133.839 165.829 133.624 165.935 133.445 166.089C133.265 166.243 133.126 166.439 133.04 166.66C129.953 174.827 127.777 183.287 126.51 192.04C124.78 204.02 122.18 216.15 121.07 228.1C120.363 235.78 119.387 243.29 118.14 250.63C117.06 257.023 116.44 262.187 116.28 266.12C116.08 271.333 116.147 276.593 116.48 281.9Z" stroke="#124B1C" stroke-width="2"/>
<path d="M110.17 168.52C107.31 177.907 105.423 187.553 104.51 197.46C103.84 204.74 102.43 211.88 101.8 219.18C100.78 230.96 99.8696 243.27 97.9396 255.34C96.8196 262.327 96.6962 270 97.5696 278.36C97.6096 278.707 97.7762 278.987 98.0696 279.2C98.5162 279.527 99.0229 279.61 99.5895 279.45C99.7847 279.395 99.962 279.29 100.104 279.146C100.246 279.002 100.348 278.825 100.4 278.63C100.773 277.19 101.03 275.7 101.17 274.16C101.923 266.14 102.353 258.62 102.46 251.6C102.533 247.033 102.946 242.187 103.7 237.06C104.413 232.18 105.223 227.067 106.13 221.72C107.11 215.94 108.096 210.087 109.09 204.16C109.743 200.253 110.463 196.167 111.25 191.9C112.81 183.447 113.71 175.37 113.95 167.67C113.957 167.397 113.889 167.127 113.751 166.891C113.614 166.655 113.414 166.461 113.173 166.332C112.932 166.204 112.66 166.145 112.387 166.162C112.115 166.179 111.852 166.272 111.63 166.43C110.93 166.923 110.443 167.62 110.17 168.52Z" stroke="#124B1C" stroke-width="2"/>
<path d="M207.07 197.53C203.596 210.35 201.71 223.357 201.41 236.55C201.08 250.81 200.95 266.46 202.19 281.41C202.363 283.463 201.376 284.707 199.23 285.14C183.083 288.413 166.946 290.177 150.82 290.43C143.266 290.55 136.06 290.083 129.2 289.03C123.1 288.09 116.91 287.7 110.53 287.04C91.6564 285.067 73.6064 280.16 56.3798 272.32C49.1864 269.047 43.2064 265.05 38.4398 260.33C37.7198 259.61 36.8098 258.45 36.7098 257.41C36.4298 254.51 36.3731 251.87 36.5398 249.49C37.1898 240.21 37.4498 230.86 38.4598 221.86C39.2798 214.58 39.8198 207.37 40.6798 200.28C42.8998 182.067 45.9931 163.867 49.9598 145.68C49.9887 145.552 49.9902 145.419 49.9642 145.29C49.9381 145.162 49.885 145.04 49.8085 144.933C49.732 144.826 49.6337 144.737 49.5202 144.671C49.4066 144.605 49.2804 144.564 49.1498 144.55C28.1798 142.24 9.22976 124.72 5.25976 103.53C4.88643 101.523 4.44976 99.5733 3.94976 97.68C2.84976 93.53 2.33976 89.23 1.55976 85.02C1.21976 83.16 1.0531 81.3467 1.05976 79.58C1.13976 58.1067 8.53643 40.6033 23.2498 27.07C27.8964 22.8033 33.8198 18.3367 41.0198 13.67C47.1464 9.69667 52.9298 6.9 58.3698 5.28C66.0498 2.98 73.1264 1.76333 79.5998 1.63C86.3331 1.49 93.2464 2.94333 100.34 5.99C117.03 13.15 131.01 26.35 143.76 39.69C145.71 41.73 148.1 41.81 150.75 42.22C159.003 43.5067 166.67 43.6567 173.75 42.67C178.67 41.99 182.9 40.32 188.22 38.01C192.853 35.99 197.523 34.92 202.23 34.8C210.84 34.57 219.23 33.97 227.8 36.61C230.893 37.5633 234.136 38.4667 237.53 39.32C250.82 42.68 258.17 56.81 263.45 68.34C267.83 77.93 266.13 90.32 259.41 98.43C259.338 98.5172 259.285 98.6179 259.253 98.7261C259.222 98.8343 259.212 98.9477 259.225 99.0597C259.238 99.1717 259.274 99.2799 259.329 99.3779C259.385 99.4758 259.46 99.5616 259.55 99.63C270.19 107.79 273.3 119.33 275.47 131.94C276.003 135.047 275.843 138.133 274.99 141.2C272.94 148.62 270.02 156.25 265.31 162.12C263.51 164.36 261.903 166.733 260.49 169.24C258.116 173.467 254.85 177.18 250.69 180.38C246.67 183.467 242.836 186.27 239.19 188.79C234.216 192.23 230.28 194.43 227.38 195.39C220.38 197.703 213.803 198.297 207.65 197.17C207.343 197.11 207.15 197.23 207.07 197.53ZM224.48 171.47C224.713 172.023 224.61 172.527 224.17 172.98C219.95 177.32 214.966 180.117 209.22 181.37C208.673 181.49 208.466 181.82 208.6 182.36C209.7 186.833 211.603 190.267 214.31 192.66C214.631 192.941 215.018 193.136 215.435 193.225C215.851 193.314 216.283 193.295 216.69 193.17L224.54 190.75C224.98 190.617 225.083 190.35 224.85 189.95C222.65 186.263 221.916 182.283 222.65 178.01C222.696 177.763 222.836 177.597 223.07 177.51C223.17 177.47 223.27 177.467 223.37 177.5C223.696 177.613 223.896 177.84 223.97 178.18C224.776 181.847 225.95 185.23 227.49 188.33C227.586 188.522 227.745 188.676 227.94 188.765C228.135 188.855 228.354 188.874 228.56 188.82C234.053 187.353 238.853 184.77 242.96 181.07C242.991 181.042 243.016 181.007 243.034 180.969C243.051 180.931 243.061 180.889 243.062 180.847C243.062 180.805 243.055 180.763 243.039 180.724C243.023 180.685 243 180.65 242.97 180.62C236.78 174.4 236.1 164.54 234.16 156.49C234.144 156.423 234.142 156.354 234.154 156.287C234.167 156.22 234.193 156.156 234.232 156.099C234.27 156.042 234.32 155.995 234.379 155.959C234.437 155.923 234.502 155.899 234.57 155.89L234.87 155.85C234.99 155.837 235.07 155.89 235.11 156.01C237.63 163.84 239.67 171.98 244.56 178.71C244.615 178.786 244.687 178.849 244.769 178.895C244.851 178.942 244.942 178.969 245.035 178.977C245.128 178.985 245.221 178.972 245.309 178.94C245.396 178.907 245.475 178.856 245.54 178.79L250.44 173.95C250.733 173.663 250.783 173.337 250.59 172.97C249.403 170.643 248.553 168.17 248.04 165.55C246.96 160.05 245.13 155.1 242.98 150.13C242.113 148.13 242.5 147.843 244.14 149.27C249.74 154.11 252.26 163.85 252.63 170.94C252.632 170.957 252.639 170.973 252.648 170.986C252.658 170.999 252.671 171.01 252.686 171.016C252.701 171.022 252.716 171.024 252.731 171.021C252.746 171.019 252.759 171.011 252.77 171L257.21 166.99C257.356 166.857 257.42 166.69 257.4 166.49C256.393 157.31 254.02 149.267 250.28 142.36C250.214 142.242 250.195 142.103 250.227 141.97C250.258 141.837 250.337 141.72 250.45 141.64L250.73 141.45C250.943 141.297 251.126 141.33 251.28 141.55C255.64 148.05 258.4 155.257 259.56 163.17C259.666 163.897 259.906 163.943 260.28 163.31L261.92 160.54C262.14 160.167 262.193 159.767 262.08 159.34C261.32 156.473 260.59 153.59 259.89 150.69C258.316 144.15 255.743 137.537 252.17 130.85C252.145 130.805 252.131 130.755 252.127 130.703C252.124 130.652 252.131 130.6 252.149 130.551C252.167 130.502 252.195 130.457 252.231 130.419C252.267 130.381 252.311 130.351 252.36 130.33L252.6 130.24C252.778 130.17 252.975 130.163 253.159 130.221C253.343 130.28 253.502 130.399 253.61 130.56C258.963 138.48 262.333 146.653 263.72 155.08C263.84 155.84 264.113 155.897 264.54 155.25C265.32 154.063 265.656 152.81 265.55 151.49C264.79 141.903 261.96 132.983 257.06 124.73C255.44 122 254.1 119.08 252.91 116.18C252.796 115.907 252.78 115.617 252.86 115.31C252.878 115.231 252.918 115.159 252.975 115.101C253.031 115.043 253.103 115.002 253.182 114.983C253.26 114.963 253.343 114.965 253.42 114.99C253.497 115.014 253.566 115.059 253.62 115.12C260.093 122.393 264.656 130.523 267.31 139.51C267.64 140.62 267.61 141.6 267.79 142.73C268.196 145.357 268.583 145.353 268.95 142.72C269.49 138.793 269.966 134.837 270.38 130.85C270.77 127.12 270.67 123.24 269.28 119.7C265.84 110.88 259.696 103.5 250.85 97.56C250.343 97.22 250.2 96.7667 250.42 96.2L250.57 95.8C250.79 95.2333 251.176 95.0733 251.73 95.32L255.84 97.13C255.999 97.1992 256.178 97.2068 256.344 97.1516C256.51 97.0963 256.651 96.9819 256.74 96.83C259.866 91.3567 261.063 85.36 260.33 78.84C259.75 73.6133 258.75 69.0567 257.33 65.17C255.396 59.87 252.243 55.2833 247.87 51.41C243.85 47.85 238.97 45.17 234.36 42.39C232.5 41.2767 230.383 40.56 228.01 40.24C221.503 39.3733 214.61 39.1967 207.33 39.71C203.23 40 199.26 41.13 195.2 41.79C191.39 42.42 187.52 42.12 183.83 43.34C179.596 44.74 175.343 45.8367 171.07 46.63C164.55 47.8433 157.706 47.5267 150.54 45.68C149.76 45.4733 149.656 45.6533 150.23 46.22C154.88 50.75 159.85 55.35 166.52 56.37C167.42 56.5033 167.733 57 167.46 57.86C167.4 58.0413 167.289 58.2014 167.14 58.3204C166.991 58.4394 166.81 58.5123 166.62 58.53C159.13 59.17 151.6 53.34 145.96 48.19C135.62 38.7433 124.853 28.9667 113.66 18.86C105.773 11.74 96.2164 7.44 84.9898 5.96C82.3431 5.61333 79.5764 5.69333 76.6898 6.2C69.7831 7.42 63.5531 9.01 57.9998 10.97C53.4331 12.57 49.0664 14.2567 44.8998 16.03C30.0698 22.32 16.1998 38.86 10.5198 54.32C8.51976 59.76 7.47643 65.7 7.38976 72.14C7.24976 82.2467 7.5231 91.3167 8.20976 99.35C8.9231 107.737 11.7031 114.987 16.5498 121.1C24.3898 131.01 35.8098 138.26 48.5798 140.72C54.2664 141.813 59.6198 142.823 64.6398 143.75C66.1598 144.03 67.6698 144.213 69.1698 144.3C69.5764 144.32 69.6531 144.173 69.3998 143.86C65.4531 138.953 61.7831 132.857 58.3898 125.57C57.3998 123.44 57.2798 120.99 57.0198 118.7C56.8064 116.793 56.4631 114.89 55.9898 112.99C53.3698 102.49 51.7898 92.8 55.3798 82.26C55.6931 81.3333 56.1998 80.6033 56.8998 80.07C57.2598 79.8033 57.6498 79.78 58.0698 80C58.2291 80.0823 58.3561 80.2158 58.4305 80.3791C58.5049 80.5423 58.5222 80.7257 58.4798 80.9C57.6531 84.1667 57.2331 88.3433 57.2198 93.43C57.1998 101.017 57.8564 107.377 59.1898 112.51C59.9198 115.33 61.1998 117.53 62.5098 120.03C63.4498 121.823 64.2598 123.72 64.9398 125.72C66.6731 130.847 69.3098 136.007 72.8498 141.2C74.5698 143.73 76.1598 146.48 78.7698 148.11C86.9898 153.24 95.7798 158.4 105.78 159C112.693 159.413 119.043 159.527 124.83 159.34C125.81 159.307 125.923 158.98 125.17 158.36C115.13 150.07 109.39 136.45 107 123.88C105.74 117.28 104.34 109.48 104.9 102.68C104.911 102.536 104.962 102.399 105.047 102.282C105.132 102.166 105.248 102.075 105.382 102.019C105.516 101.964 105.662 101.945 105.807 101.967C105.951 101.988 106.087 102.048 106.2 102.14C106.613 102.48 106.863 102.94 106.95 103.52C108.41 113.707 111.016 123.367 114.77 132.5C119.42 143.81 127.85 156.08 139.37 160.78C148.29 164.43 160.26 166.51 168.06 159.23C168.386 158.923 168.43 158.58 168.19 158.2C166.29 155.2 164.413 152.06 162.56 148.78C160.66 145.42 160.91 141.1 159.82 137.37C158.66 133.43 157.62 129.63 156.7 125.97C155.613 121.65 155.146 116.263 155.3 109.81C155.326 108.843 155.793 108.39 156.7 108.45C156.978 108.467 157.243 108.578 157.45 108.765C157.658 108.952 157.795 109.204 157.84 109.48C159 116.6 160.273 124.02 161.66 131.74C162.16 134.52 163.32 137.95 164.84 140.33C166.33 142.65 167.77 144.98 168.6 147.62C170.16 152.55 173.09 156.34 175.54 160.77C177.22 163.82 179.62 166.29 182.58 168.09C188.89 171.95 193.5 177.2 201.43 176.79C207.156 176.497 212.656 175.277 217.93 173.13C219.763 172.383 221.503 171.65 223.15 170.93C223.272 170.876 223.404 170.847 223.538 170.845C223.672 170.843 223.805 170.868 223.929 170.919C224.053 170.969 224.166 171.044 224.26 171.138C224.355 171.233 224.43 171.346 224.48 171.47ZM186.47 250.43C189.343 250.383 192.236 250.173 195.15 249.8C195.483 249.753 195.66 249.563 195.68 249.23L195.93 245.72C195.95 245.367 195.786 245.21 195.44 245.25C191.82 245.657 188.096 245.443 184.27 244.61C183.956 244.543 183.773 244.667 183.72 244.98C183.326 247.347 183.123 249.677 183.11 251.97C183.076 260.97 182.896 270.777 182.57 281.39C182.564 281.551 182.525 281.708 182.455 281.853C182.385 281.998 182.286 282.126 182.164 282.231C182.042 282.335 181.899 282.413 181.745 282.459C181.591 282.506 181.429 282.52 181.27 282.5C181.156 282.48 181.033 282.463 180.9 282.45C179.933 282.323 179.38 281.78 179.24 280.82C177.806 271.32 177.846 262.083 179.36 253.11C180.82 244.4 180.9 235.77 182.49 227.1C184.363 216.927 186.423 207.333 188.67 198.32C190.23 192.073 192.62 186.243 195.84 180.83C196.08 180.43 195.973 180.177 195.52 180.07C190.866 179.023 186.576 177.163 182.65 174.49C182.256 174.223 182.033 174.327 181.98 174.8C181.2 181.907 180.063 188.027 178.57 193.16C176.343 200.827 174.86 206.32 174.12 209.64C171.913 219.533 169.666 229.81 167.38 240.47C166.5 244.59 166.05 248.77 165.92 252.86C165.613 262.673 165.266 272.423 164.88 282.11C164.868 282.387 164.765 282.652 164.587 282.863C164.41 283.073 164.168 283.216 163.9 283.27C162.666 283.517 161.943 283.043 161.73 281.85C159.81 270.97 160.62 260.71 162.63 249.69C163.21 246.477 163.703 242.673 164.11 238.28C164.89 229.73 166.47 220.69 168.28 212C169.406 206.587 170.58 200.93 171.8 195.03C172.98 189.317 174.516 184.057 176.41 179.25C177.496 176.51 178.57 174.247 179.63 172.46C179.876 172.047 179.836 171.66 179.51 171.3L172.47 163.66C172.308 163.486 172.087 163.379 171.852 163.36C171.616 163.341 171.383 163.413 171.2 163.56C166.706 167.1 162.013 168.853 157.12 168.82C156.566 168.82 156.436 169.053 156.73 169.52C157.09 170.1 157.19 171.08 157.15 171.73C156.69 179.55 155.62 187.223 153.94 194.75C152.64 200.557 151.453 206.577 150.38 212.81C148.646 222.83 146.776 233.083 144.77 243.57C144.47 245.157 144.293 246.873 144.24 248.72C143.906 260.307 142.83 271.41 141.01 282.03C140.954 282.345 140.806 282.636 140.585 282.864C140.364 283.092 140.08 283.248 139.77 283.31C139.203 283.43 138.716 283.303 138.31 282.93C138.043 282.683 137.903 282.363 137.89 281.97C137.596 272.79 138.19 264.117 139.67 255.95C140.623 250.683 141.336 245.627 141.81 240.78C143.576 222.907 145.95 205.527 148.93 188.64C150.05 182.333 151.856 175.977 154.35 169.57C154.483 169.23 154.363 169.05 153.99 169.03C145.73 168.63 137.716 166.203 129.95 161.75C129.828 161.682 129.694 161.642 129.556 161.635C129.419 161.629 129.283 161.654 129.16 161.71C122.84 164.503 116.04 165.38 108.76 164.34C104.63 163.75 100.67 162.12 96.5698 161.27C93.4498 160.63 90.4398 159.59 87.3798 158.61C85.4398 157.983 83.5698 157.127 81.7698 156.04C78.7698 154.23 76.8698 151.46 74.5598 148.93C73.9146 148.227 73.0378 147.779 72.0898 147.67L53.1498 145.52C53.0318 145.506 52.9131 145.539 52.8194 145.612C52.7257 145.685 52.6648 145.792 52.6498 145.91C49.4898 166.797 46.3964 187.727 43.3698 208.7C42.2398 216.5 41.4698 224.39 40.8098 232.08C40.2764 238.233 40.3431 244.463 41.0098 250.77C41.2798 253.28 41.6298 255.86 43.8098 257.46C47.9764 260.52 51.7864 263.093 55.2398 265.18C55.2844 265.21 55.3363 265.226 55.3898 265.227C55.4432 265.227 55.4961 265.213 55.5426 265.185C55.5891 265.157 55.6275 265.117 55.6534 265.068C55.6794 265.02 55.692 264.965 55.6898 264.91C55.2898 257.65 55.1898 250.48 56.2298 243.07C57.5898 233.3 58.6798 224.77 59.3498 213.94C60.0398 202.73 61.5698 193.21 62.7298 181.22C63.6498 171.747 65.3664 162.56 67.8798 153.66C68.1731 152.633 68.7264 152.033 69.5398 151.86C69.7745 151.809 70.0177 151.812 70.2513 151.868C70.485 151.925 70.703 152.033 70.8894 152.186C71.0757 152.339 71.2256 152.532 71.3278 152.75C71.43 152.969 71.4819 153.208 71.4798 153.45C71.3798 161.87 70.5831 170.167 69.0898 178.34C68.2831 182.76 67.5731 187.077 66.9598 191.29C66.3064 195.803 65.6798 200.177 65.0798 204.41C64.3998 209.203 63.6098 214.243 62.7098 219.53C61.6564 225.717 61.0831 230.793 60.9898 234.76C60.7498 244.5 60.1464 254.487 59.1798 264.72C59.1098 265.41 58.8798 266.02 58.6298 266.65C58.4831 267.017 58.5864 267.287 58.9398 267.46C66.9264 271.44 75.0864 274.633 83.4198 277.04C94.2064 280.147 105.46 282.577 117.18 284.33C121.113 284.917 124.813 285.217 128.28 285.23C138.5 285.27 149.323 285.243 160.75 285.15C171.63 285.057 183.406 284.013 196.08 282.02C196.693 281.92 197.296 281.703 197.89 281.37C198.196 281.197 198.336 280.933 198.31 280.58L197.89 275.39C197.856 275.003 197.653 274.863 197.28 274.97C194.586 275.79 191.92 276.383 189.28 276.75C188.106 276.91 187.07 276.637 186.17 275.93C185.883 275.703 185.84 275.32 186.04 274.78C186.096 274.636 186.183 274.506 186.296 274.399C186.408 274.292 186.542 274.21 186.69 274.16L196.34 271.05C196.57 270.975 196.767 270.822 196.896 270.618C197.026 270.413 197.08 270.17 197.05 269.93L196.81 268.08C196.763 267.72 196.56 267.557 196.2 267.59C192.76 267.89 189.3 267.86 185.82 267.5C185.658 267.481 185.505 267.415 185.381 267.31C185.256 267.205 185.165 267.066 185.12 266.91C185.075 266.755 185.078 266.59 185.128 266.436C185.177 266.283 185.272 266.149 185.4 266.05C187.33 264.55 193.54 264.54 195.94 264.33C196.01 264.324 196.079 264.304 196.142 264.271C196.204 264.238 196.259 264.193 196.304 264.139C196.349 264.085 196.382 264.023 196.402 263.956C196.422 263.889 196.428 263.819 196.42 263.75L196.06 260.41C196.043 260.258 195.971 260.116 195.857 260.012C195.744 259.907 195.595 259.846 195.44 259.84L186.83 259.59C186.756 259.588 186.683 259.57 186.616 259.538C186.549 259.506 186.488 259.461 186.439 259.405C186.389 259.349 186.352 259.283 186.328 259.212C186.304 259.141 186.294 259.065 186.3 258.99L186.32 258.71C186.336 258.486 186.435 258.275 186.597 258.117C186.758 257.958 186.973 257.864 187.2 257.85L195.52 257.33C195.74 257.317 195.85 257.2 195.85 256.98L195.76 252.6C195.76 252.433 195.676 252.367 195.51 252.4C191.556 253.127 188.44 252.91 186.16 251.75C184.493 250.897 184.596 250.457 186.47 250.43ZM198.49 181.2C197.736 187.4 196.53 193.25 194.87 198.75C194.776 199.063 194.89 199.26 195.21 199.34C197.623 199.947 200.026 200.733 202.42 201.7C202.457 201.714 202.497 201.721 202.537 201.72C202.577 201.718 202.616 201.709 202.653 201.692C202.689 201.675 202.722 201.652 202.749 201.622C202.776 201.592 202.796 201.558 202.81 201.52L204.81 196C204.876 195.807 204.813 195.68 204.62 195.62C202.48 194.94 200.626 193.517 199.06 191.35C198.66 190.803 198.676 190.273 199.11 189.76C199.336 189.5 199.583 189.477 199.85 189.69L205.29 194.11C205.55 194.33 205.85 194.43 206.19 194.41L209.47 194.22C209.525 194.216 209.578 194.197 209.622 194.164C209.667 194.132 209.701 194.087 209.721 194.035C209.741 193.984 209.746 193.928 209.735 193.874C209.724 193.82 209.698 193.77 209.66 193.73C206.56 190.543 205.183 186.697 205.53 182.19C205.536 182.109 205.51 182.028 205.459 181.963C205.407 181.899 205.332 181.855 205.25 181.84L198.84 180.92C198.633 180.893 198.516 180.987 198.49 181.2ZM201.73 204.61C201.746 204.544 201.742 204.475 201.717 204.412C201.692 204.349 201.647 204.296 201.59 204.26L194.9 200.09C194.857 200.063 194.809 200.047 194.759 200.042C194.709 200.038 194.658 200.045 194.612 200.063C194.565 200.082 194.523 200.111 194.49 200.149C194.456 200.186 194.432 200.231 194.42 200.28L192.17 208.07C192.147 208.147 192.153 208.23 192.189 208.302C192.224 208.374 192.285 208.431 192.36 208.46L199.64 211.39C199.682 211.407 199.728 211.415 199.774 211.413C199.819 211.411 199.864 211.399 199.905 211.378C199.946 211.357 199.981 211.328 200.01 211.292C200.038 211.256 200.059 211.214 200.07 211.17L201.73 204.61ZM191.75 210.44C191.704 210.418 191.653 210.406 191.602 210.406C191.551 210.406 191.5 210.417 191.454 210.439C191.408 210.461 191.368 210.494 191.336 210.534C191.304 210.573 191.281 210.62 191.27 210.67L189.71 217.34C189.7 217.385 189.699 217.431 189.707 217.476C189.715 217.521 189.732 217.564 189.757 217.603C189.783 217.641 189.815 217.674 189.853 217.699C189.892 217.724 189.935 217.742 189.98 217.75L198 219.15C198.087 219.165 198.177 219.145 198.25 219.094C198.322 219.044 198.373 218.967 198.39 218.88L199.25 214.29C199.264 214.216 199.252 214.14 199.218 214.073C199.184 214.006 199.128 213.952 199.06 213.92L191.75 210.44ZM189.09 219.51L187.39 227.24C187.382 227.273 187.382 227.308 187.388 227.342C187.394 227.376 187.407 227.408 187.425 227.437C187.444 227.465 187.468 227.49 187.496 227.51C187.524 227.529 187.556 227.543 187.59 227.55L188.01 227.65C189.132 227.897 190.251 228.106 191.303 228.266C192.355 228.426 193.318 228.534 194.139 228.583C194.96 228.633 195.622 228.622 196.087 228.553C196.552 228.484 196.811 228.357 196.85 228.18L198.07 222.63C198.111 222.453 197.931 222.229 197.538 221.971C197.146 221.713 196.549 221.426 195.783 221.126C195.017 220.826 194.096 220.519 193.072 220.223C192.049 219.927 190.944 219.647 189.82 219.4L189.4 219.31C189.366 219.303 189.332 219.302 189.298 219.308C189.264 219.314 189.232 219.327 189.203 219.345C189.174 219.364 189.149 219.388 189.13 219.416C189.111 219.445 189.097 219.476 189.09 219.51ZM187.19 229.29C187.147 229.281 187.103 229.281 187.06 229.289C187.018 229.298 186.977 229.315 186.941 229.339C186.904 229.363 186.873 229.394 186.849 229.43C186.825 229.467 186.808 229.507 186.8 229.55L185.81 234.7C185.801 234.746 185.803 234.794 185.814 234.84C185.825 234.886 185.846 234.929 185.876 234.966C185.905 235.003 185.942 235.033 185.984 235.054C186.026 235.076 186.073 235.088 186.12 235.09L196 235.54C196.044 235.543 196.088 235.536 196.13 235.522C196.172 235.507 196.21 235.484 196.243 235.454C196.275 235.424 196.302 235.388 196.32 235.348C196.338 235.308 196.349 235.264 196.35 235.22L196.56 231.52C196.564 231.442 196.54 231.364 196.492 231.302C196.445 231.24 196.376 231.197 196.3 231.18L187.19 229.29ZM195.73 238.23C192.55 238.45 188.98 237.97 186.06 236.62C185.666 236.44 185.423 236.557 185.33 236.97L184.02 242.77C184.006 242.83 184.008 242.892 184.023 242.951C184.039 243.01 184.069 243.064 184.11 243.109C184.151 243.155 184.203 243.189 184.26 243.21C184.317 243.231 184.379 243.238 184.44 243.23C188.486 242.73 192.213 242.833 195.62 243.54C195.826 243.58 195.933 243.497 195.94 243.29L196.08 238.57C196.081 238.524 196.073 238.478 196.056 238.436C196.039 238.393 196.013 238.355 195.98 238.323C195.947 238.291 195.908 238.266 195.865 238.25C195.822 238.234 195.776 238.227 195.73 238.23Z" fill="#4BA35A"/>
<path d="M224.48 171.47C224.43 171.346 224.355 171.233 224.261 171.138C224.166 171.044 224.053 170.969 223.929 170.919C223.805 170.868 223.672 170.843 223.539 170.845C223.405 170.847 223.273 170.876 223.15 170.93C221.503 171.65 219.763 172.383 217.93 173.13C212.657 175.277 207.157 176.497 201.43 176.79C193.5 177.2 188.89 171.95 182.58 168.09C179.62 166.29 177.22 163.82 175.54 160.77C173.09 156.34 170.16 152.55 168.6 147.62C167.77 144.98 166.33 142.65 164.84 140.33C163.32 137.95 162.16 134.52 161.66 131.74C160.273 124.02 159 116.6 157.84 109.48C157.795 109.204 157.658 108.952 157.451 108.765C157.243 108.578 156.979 108.467 156.7 108.45C155.793 108.39 155.327 108.843 155.3 109.81C155.147 116.263 155.613 121.65 156.7 125.97C157.62 129.63 158.66 133.43 159.82 137.37C160.91 141.1 160.66 145.42 162.56 148.78C164.413 152.06 166.29 155.2 168.19 158.2C168.43 158.58 168.387 158.923 168.06 159.23C160.26 166.51 148.29 164.43 139.37 160.78C127.85 156.08 119.42 143.81 114.77 132.5C111.017 123.367 108.41 113.707 106.95 103.52C106.863 102.94 106.613 102.48 106.2 102.14C106.087 102.048 105.951 101.988 105.807 101.967C105.663 101.945 105.516 101.964 105.382 102.019C105.248 102.075 105.132 102.166 105.047 102.282C104.963 102.399 104.912 102.536 104.9 102.68C104.34 109.48 105.74 117.28 107 123.88C109.39 136.45 115.13 150.07 125.17 158.36C125.923 158.98 125.81 159.307 124.83 159.34C119.043 159.527 112.693 159.413 105.78 159C95.7801 158.4 86.9901 153.24 78.7701 148.11C76.1601 146.48 74.5701 143.73 72.8501 141.2C69.3101 136.007 66.6734 130.847 64.9401 125.72C64.2601 123.72 63.4501 121.823 62.5101 120.03C61.2001 117.53 59.9201 115.33 59.1901 112.51C57.8567 107.377 57.2001 101.017 57.2201 93.43C57.2334 88.3433 57.6534 84.1667 58.4801 80.9C58.5225 80.7257 58.5051 80.5423 58.4308 80.3791C58.3564 80.2158 58.2294 80.0823 58.0701 80C57.6501 79.78 57.2601 79.8033 56.9001 80.07C56.2001 80.6033 55.6934 81.3333 55.3801 82.26C51.7901 92.8 53.3701 102.49 55.9901 112.99C56.4634 114.89 56.8067 116.793 57.0201 118.7C57.2801 120.99 57.4001 123.44 58.3901 125.57C61.7834 132.857 65.4534 138.953 69.4001 143.86C69.6534 144.173 69.5767 144.32 69.1701 144.3C67.6701 144.213 66.1601 144.03 64.6401 143.75C59.6201 142.823 54.2667 141.813 48.5801 140.72C35.8101 138.26 24.3901 131.01 16.5501 121.1C11.7034 114.987 8.92339 107.737 8.21006 99.35C7.52339 91.3167 7.25006 82.2467 7.39006 72.14C7.47672 65.7 8.52006 59.76 10.5201 54.32C16.2001 38.86 30.0701 22.32 44.9001 16.03C49.0667 14.2567 53.4334 12.57 58.0001 10.97C63.5534 9.01 69.7834 7.42 76.6901 6.2C79.5767 5.69333 82.3434 5.61333 84.9901 5.96C96.2167 7.44 105.773 11.74 113.66 18.86C124.853 28.9667 135.62 38.7433 145.96 48.19C151.6 53.34 159.13 59.17 166.62 58.53C166.81 58.5123 166.991 58.4394 167.14 58.3204C167.289 58.2014 167.401 58.0413 167.46 57.86C167.733 57 167.42 56.5033 166.52 56.37C159.85 55.35 154.88 50.75 150.23 46.22C149.657 45.6533 149.76 45.4733 150.54 45.68C157.707 47.5267 164.55 47.8433 171.07 46.63C175.343 45.8367 179.597 44.74 183.83 43.34C187.52 42.12 191.39 42.42 195.2 41.79C199.26 41.13 203.23 40 207.33 39.71C214.61 39.1967 221.503 39.3733 228.01 40.24C230.383 40.56 232.5 41.2767 234.36 42.39C238.97 45.17 243.85 47.85 247.87 51.41C252.243 55.2833 255.397 59.87 257.33 65.17C258.75 69.0567 259.75 73.6133 260.33 78.84C261.063 85.36 259.867 91.3567 256.74 96.83C256.651 96.9819 256.51 97.0963 256.345 97.1516C256.179 97.2068 255.999 97.1992 255.84 97.13L251.73 95.32C251.177 95.0733 250.79 95.2333 250.57 95.8L250.42 96.2C250.2 96.7667 250.343 97.22 250.85 97.56C259.697 103.5 265.84 110.88 269.28 119.7C270.67 123.24 270.77 127.12 270.38 130.85C269.967 134.837 269.49 138.793 268.95 142.72C268.583 145.353 268.197 145.357 267.79 142.73C267.61 141.6 267.64 140.62 267.31 139.51C264.657 130.523 260.093 122.393 253.62 115.12C253.567 115.059 253.498 115.014 253.42 114.99C253.343 114.965 253.261 114.963 253.182 114.983C253.103 115.002 253.032 115.043 252.975 115.101C252.918 115.159 252.878 115.231 252.86 115.31C252.78 115.617 252.797 115.907 252.91 116.18C254.1 119.08 255.44 122 257.06 124.73C261.96 132.983 264.79 141.903 265.55 151.49C265.657 152.81 265.32 154.063 264.54 155.25C264.113 155.897 263.84 155.84 263.72 155.08C262.333 146.653 258.963 138.48 253.61 130.56C253.502 130.399 253.343 130.28 253.159 130.221C252.976 130.163 252.778 130.17 252.6 130.24L252.36 130.33C252.312 130.351 252.268 130.381 252.231 130.419C252.195 130.457 252.167 130.502 252.149 130.551C252.131 130.6 252.124 130.652 252.128 130.703C252.131 130.755 252.146 130.805 252.17 130.85C255.743 137.537 258.317 144.15 259.89 150.69C260.59 153.59 261.32 156.473 262.08 159.34C262.193 159.767 262.14 160.167 261.92 160.54L260.28 163.31C259.907 163.943 259.667 163.897 259.56 163.17C258.4 155.257 255.64 148.05 251.28 141.55C251.127 141.33 250.943 141.297 250.73 141.45L250.45 141.64C250.338 141.72 250.258 141.837 250.227 141.97C250.196 142.103 250.215 142.242 250.28 142.36C254.02 149.267 256.393 157.31 257.4 166.49C257.42 166.69 257.357 166.857 257.21 166.99L252.77 171C252.76 171.011 252.746 171.019 252.731 171.021C252.717 171.024 252.701 171.022 252.686 171.016C252.672 171.01 252.659 170.999 252.649 170.986C252.639 170.973 252.632 170.957 252.63 170.94C252.26 163.85 249.74 154.11 244.14 149.27C242.5 147.843 242.113 148.13 242.98 150.13C245.13 155.1 246.96 160.05 248.04 165.55C248.553 168.17 249.403 170.643 250.59 172.97C250.783 173.337 250.733 173.663 250.44 173.95L245.54 178.79C245.475 178.856 245.396 178.907 245.309 178.94C245.222 178.972 245.128 178.985 245.035 178.977C244.942 178.969 244.851 178.942 244.769 178.895C244.687 178.849 244.616 178.786 244.56 178.71C239.67 171.98 237.63 163.84 235.11 156.01C235.07 155.89 234.99 155.837 234.87 155.85L234.57 155.89C234.502 155.899 234.437 155.923 234.379 155.959C234.321 155.995 234.271 156.042 234.232 156.099C234.193 156.156 234.167 156.22 234.155 156.287C234.142 156.354 234.144 156.423 234.16 156.49C236.1 164.54 236.78 174.4 242.97 180.62C243 180.65 243.024 180.685 243.039 180.724C243.055 180.763 243.063 180.805 243.062 180.847C243.061 180.889 243.051 180.931 243.034 180.969C243.016 181.007 242.991 181.042 242.96 181.07C238.853 184.77 234.053 187.353 228.56 188.82C228.354 188.874 228.135 188.855 227.94 188.765C227.746 188.676 227.587 188.522 227.49 188.33C225.95 185.23 224.777 181.847 223.97 178.18C223.897 177.84 223.697 177.613 223.37 177.5C223.27 177.467 223.17 177.47 223.07 177.51C222.837 177.597 222.697 177.763 222.65 178.01C221.917 182.283 222.65 186.263 224.85 189.95C225.083 190.35 224.98 190.617 224.54 190.75L216.69 193.17C216.284 193.295 215.852 193.314 215.435 193.225C215.018 193.136 214.631 192.941 214.31 192.66C211.603 190.267 209.7 186.833 208.6 182.36C208.467 181.82 208.673 181.49 209.22 181.37C214.967 180.117 219.95 177.32 224.17 172.98C224.61 172.527 224.713 172.023 224.48 171.47ZM72.0101 21.87L61.8601 22.83C61.8272 22.8325 61.7951 22.8415 61.7658 22.8565C61.7364 22.8714 61.7103 22.8921 61.6889 22.9171C61.6675 22.9422 61.6513 22.9713 61.6412 23.0027C61.6311 23.0341 61.6273 23.0671 61.6301 23.1L61.7101 23.91C61.7458 24.2892 61.9146 24.6521 62.2069 24.9779C62.4991 25.3037 62.9091 25.5861 63.4133 25.809C63.9175 26.0319 64.5062 26.1908 65.1456 26.2768C65.7851 26.3627 66.4628 26.374 67.1401 26.31L67.4801 26.28C68.1578 26.2157 68.8218 26.0772 69.434 25.8724C70.0461 25.6677 70.5945 25.4007 71.0477 25.0868C71.501 24.7729 71.8502 24.4182 72.0753 24.043C72.3005 23.6677 72.3973 23.2793 72.3601 22.9L72.2801 22.09C72.2725 22.0254 72.2401 21.9663 72.1897 21.9252C72.1393 21.8842 72.0748 21.8644 72.0101 21.87ZM87.6601 25.39C87.6601 25.1576 87.6143 24.9274 87.5253 24.7127C87.4364 24.4979 87.306 24.3028 87.1416 24.1384C86.9773 23.9741 86.7822 23.8437 86.5674 23.7547C86.3527 23.6658 86.1225 23.62 85.8901 23.62H79.59C79.3576 23.62 79.1275 23.6658 78.9127 23.7547C78.698 23.8437 78.5028 23.9741 78.3385 24.1384C78.1741 24.3028 78.0437 24.4979 77.9548 24.7127C77.8658 24.9274 77.8201 25.1576 77.8201 25.39V25.59C77.8201 25.8224 77.8658 26.0526 77.9548 26.2673C78.0437 26.4821 78.1741 26.6772 78.3385 26.8416C78.5028 27.0059 78.698 27.1363 78.9127 27.2253C79.1275 27.3142 79.3576 27.36 79.59 27.36H85.8901C86.3595 27.36 86.8097 27.1735 87.1416 26.8416C87.4736 26.5096 87.6601 26.0594 87.6601 25.59V25.39ZM77.1203 31.9154C77.2942 31.5283 77.2534 31.0639 77.007 30.6241C76.7605 30.1844 76.3285 29.8054 75.806 29.5706C75.5472 29.4543 75.2741 29.3769 75.0021 29.3428C74.7301 29.3088 74.4645 29.3186 74.2207 29.3719C73.9768 29.4252 73.7594 29.5209 73.5808 29.6535C73.4022 29.7861 73.266 29.9529 73.1799 30.1446C73.0059 30.5317 73.0467 30.9961 73.2931 31.4359C73.5396 31.8756 73.9716 32.2546 74.4942 32.4894C74.7529 32.6057 75.0261 32.6831 75.2981 32.7172C75.5701 32.7512 75.8356 32.7414 76.0794 32.6881C76.3233 32.6348 76.5407 32.5391 76.7193 32.4065C76.8979 32.2739 77.0341 32.1071 77.1203 31.9154ZM27.9801 114.51C30.2201 118.9 32.0601 123 36.0501 125.99C36.5301 126.35 37.0034 126.343 37.4701 125.97C37.5634 125.897 37.6201 125.803 37.6401 125.69C37.7667 124.797 37.5134 124.01 36.8801 123.33C33.9667 120.217 31.4701 116.84 29.3901 113.2C29.3189 113.078 29.2025 112.988 29.066 112.951C28.9294 112.913 28.7837 112.931 28.6601 113L28.3801 113.16C28.1541 113.29 27.9867 113.502 27.9124 113.753C27.838 114.004 27.8622 114.275 27.9801 114.51ZM47.1601 123.41C44.6334 122.103 42.7401 120.227 41.4801 117.78C41.2467 117.327 40.9034 116.977 40.4501 116.73C39.8634 116.41 39.3401 116.553 38.8801 117.16C38.7672 117.31 38.6883 117.483 38.6485 117.666C38.6088 117.849 38.6094 118.038 38.6501 118.22C39.6501 122.6 43.6501 127.56 48.5501 127.9C48.9755 127.931 49.3973 127.803 49.7337 127.541C50.07 127.278 50.2968 126.9 50.3701 126.48C50.4834 125.8 50.2234 125.25 49.5901 124.83C48.8301 124.323 48.0201 123.85 47.1601 123.41ZM234.73 183.77C234.863 183.99 235.057 184.117 235.31 184.15C235.523 184.17 235.723 184.123 235.91 184.01C236.477 183.67 236.637 183.193 236.39 182.58C234.103 176.9 232.33 171.14 231.07 165.3C231.052 165.22 231.013 165.146 230.955 165.088C230.898 165.029 230.826 164.988 230.747 164.969C230.668 164.95 230.586 164.954 230.51 164.981C230.435 165.008 230.369 165.056 230.32 165.12C230.033 165.48 229.867 165.887 229.82 166.34C229.293 171.433 230.93 177.243 234.73 183.77Z" fill="white"/>
<path d="M72.0098 21.87C72.0745 21.8644 72.139 21.8842 72.1894 21.9252C72.2398 21.9663 72.2722 22.0254 72.2798 22.09L72.3598 22.9C72.397 23.2793 72.3002 23.6677 72.0751 24.043C71.8499 24.4182 71.5007 24.7729 71.0475 25.0868C70.5942 25.4007 70.0458 25.6677 69.4337 25.8724C68.8215 26.0772 68.1575 26.2157 67.4798 26.28L67.1398 26.31C66.4625 26.374 65.7848 26.3627 65.1453 26.2768C64.5059 26.1908 63.9172 26.0319 63.413 25.809C62.9088 25.5861 62.4988 25.3037 62.2066 24.9779C61.9143 24.6521 61.7455 24.2892 61.7098 23.91L61.6298 23.1C61.627 23.0671 61.6308 23.0341 61.6409 23.0027C61.651 22.9713 61.6672 22.9422 61.6886 22.9172C61.71 22.8921 61.7361 22.8714 61.7655 22.8565C61.7949 22.8415 61.8269 22.8325 61.8598 22.83L72.0098 21.87Z" fill="#4BA35A"/>
<path d="M85.8898 23.62H79.5898C78.6123 23.62 77.8198 24.4125 77.8198 25.39V25.59C77.8198 26.5675 78.6123 27.36 79.5898 27.36H85.8898C86.8674 27.36 87.6598 26.5675 87.6598 25.59V25.39C87.6598 24.4125 86.8674 23.62 85.8898 23.62Z" fill="#4BA35A"/>
<path d="M74.4944 32.4894C75.5825 32.9784 76.7582 32.7214 77.1204 31.9154C77.4827 31.1094 76.8942 30.0596 75.8061 29.5706C74.718 29.0816 73.5423 29.3386 73.1801 30.1446C72.8178 30.9506 73.4063 32.0004 74.4944 32.4894Z" fill="#4BA35A"/>
<path d="M36.0502 125.99C32.0602 123 30.2202 118.9 27.9802 114.51C27.8623 114.275 27.8381 114.004 27.9125 113.753C27.9868 113.502 28.1542 113.29 28.3802 113.16L28.6602 113C28.7838 112.931 28.9295 112.913 29.0661 112.951C29.2026 112.988 29.319 113.078 29.3902 113.2C31.4702 116.84 33.9668 120.217 36.8802 123.33C37.5135 124.01 37.7668 124.797 37.6402 125.69C37.6202 125.803 37.5635 125.897 37.4702 125.97C37.0035 126.343 36.5302 126.35 36.0502 125.99Z" fill="#4BA35A"/>
<path d="M47.1601 123.41C48.0201 123.85 48.8301 124.323 49.5901 124.83C50.2234 125.25 50.4834 125.8 50.3701 126.48C50.2968 126.9 50.07 127.278 49.7336 127.541C49.3973 127.803 48.9755 127.931 48.5501 127.9C43.6501 127.56 39.6501 122.6 38.6501 118.22C38.6094 118.038 38.6088 117.849 38.6485 117.666C38.6883 117.483 38.7672 117.31 38.8801 117.16C39.3401 116.553 39.8634 116.41 40.4501 116.73C40.9034 116.977 41.2467 117.327 41.4801 117.78C42.7401 120.227 44.6334 122.103 47.1601 123.41Z" fill="#4BA35A"/>
<path d="M186.47 250.43C184.597 250.457 184.493 250.897 186.16 251.75C188.44 252.91 191.557 253.127 195.51 252.4C195.677 252.367 195.76 252.433 195.76 252.6L195.85 256.98C195.85 257.2 195.74 257.317 195.52 257.33L187.2 257.85C186.973 257.864 186.759 257.958 186.597 258.117C186.435 258.275 186.337 258.486 186.32 258.71L186.3 258.99C186.295 259.065 186.304 259.141 186.328 259.212C186.352 259.283 186.39 259.349 186.439 259.405C186.489 259.461 186.549 259.506 186.616 259.538C186.683 259.57 186.756 259.588 186.83 259.59L195.44 259.84C195.596 259.846 195.744 259.907 195.858 260.012C195.972 260.116 196.043 260.258 196.06 260.41L196.42 263.75C196.428 263.819 196.422 263.889 196.402 263.956C196.383 264.023 196.349 264.085 196.305 264.139C196.26 264.193 196.205 264.238 196.142 264.271C196.079 264.303 196.011 264.324 195.94 264.33C193.54 264.54 187.33 264.55 185.4 266.05C185.272 266.149 185.178 266.283 185.128 266.436C185.078 266.59 185.076 266.755 185.121 266.91C185.166 267.066 185.256 267.205 185.381 267.31C185.506 267.415 185.659 267.481 185.82 267.5C189.3 267.86 192.76 267.89 196.2 267.59C196.56 267.557 196.763 267.72 196.81 268.08L197.05 269.93C197.081 270.17 197.026 270.413 196.897 270.618C196.767 270.822 196.57 270.975 196.34 271.05L186.69 274.16C186.543 274.21 186.408 274.292 186.296 274.399C186.184 274.506 186.096 274.636 186.04 274.78C185.84 275.32 185.883 275.703 186.17 275.93C187.07 276.637 188.107 276.91 189.28 276.75C191.92 276.383 194.587 275.79 197.28 274.97C197.653 274.863 197.857 275.003 197.89 275.39L198.31 280.58C198.337 280.933 198.197 281.197 197.89 281.37C197.297 281.703 196.693 281.92 196.08 282.02C183.407 284.013 171.63 285.057 160.75 285.15C149.323 285.243 138.5 285.27 128.28 285.23C124.813 285.217 121.113 284.917 117.18 284.33C105.46 282.577 94.2068 280.147 83.4201 277.04C75.0868 274.633 66.9268 271.44 58.9401 267.46C58.5868 267.287 58.4835 267.017 58.6301 266.65C58.8801 266.02 59.1101 265.41 59.1801 264.72C60.1468 254.487 60.7501 244.5 60.9901 234.76C61.0835 230.793 61.6568 225.717 62.7101 219.53C63.6101 214.243 64.4001 209.203 65.0801 204.41C65.6801 200.177 66.3068 195.803 66.9601 191.29C67.5735 187.077 68.2835 182.76 69.0901 178.34C70.5835 170.167 71.3801 161.87 71.4801 153.45C71.4823 153.208 71.4303 152.969 71.3281 152.75C71.2259 152.532 71.0761 152.339 70.8898 152.186C70.7034 152.033 70.4853 151.925 70.2517 151.868C70.0181 151.812 69.7749 151.809 69.5401 151.86C68.7268 152.033 68.1735 152.633 67.8801 153.66C65.3668 162.56 63.6501 171.747 62.7301 181.22C61.5701 193.21 60.0401 202.73 59.3501 213.94C58.6801 224.77 57.5901 233.3 56.2301 243.07C55.1901 250.48 55.2901 257.65 55.6901 264.91C55.6923 264.965 55.6798 265.02 55.6538 265.068C55.6278 265.117 55.5895 265.157 55.543 265.185C55.4965 265.213 55.4436 265.227 55.3901 265.227C55.3367 265.226 55.2848 265.209 55.2401 265.18C51.7868 263.093 47.9768 260.52 43.8101 257.46C41.6301 255.86 41.2801 253.28 41.0101 250.77C40.3435 244.463 40.2768 238.233 40.8101 232.08C41.4701 224.39 42.2401 216.5 43.3701 208.7C46.3968 187.727 49.4901 166.797 52.6501 145.91C52.6651 145.792 52.7261 145.685 52.8198 145.612C52.9134 145.539 53.0322 145.506 53.1501 145.52L72.0901 147.67C73.0382 147.779 73.915 148.227 74.5601 148.93C76.8701 151.46 78.7701 154.23 81.7701 156.04C83.5701 157.127 85.4401 157.983 87.3801 158.61C90.4401 159.59 93.4501 160.63 96.5701 161.27C100.67 162.12 104.63 163.75 108.76 164.34C116.04 165.38 122.84 164.503 129.16 161.71C129.284 161.654 129.419 161.629 129.557 161.635C129.694 161.642 129.829 161.682 129.95 161.75C137.717 166.203 145.73 168.63 153.99 169.03C154.363 169.05 154.483 169.23 154.35 169.57C151.857 175.977 150.05 182.333 148.93 188.64C145.95 205.527 143.577 222.907 141.81 240.78C141.337 245.627 140.623 250.683 139.67 255.95C138.19 264.117 137.597 272.79 137.89 281.97C137.903 282.363 138.043 282.683 138.31 282.93C138.717 283.303 139.203 283.43 139.77 283.31C140.08 283.248 140.364 283.092 140.585 282.864C140.807 282.636 140.955 282.345 141.01 282.03C142.83 271.41 143.907 260.307 144.24 248.72C144.293 246.873 144.47 245.157 144.77 243.57C146.777 233.083 148.647 222.83 150.38 212.81C151.453 206.577 152.64 200.557 153.94 194.75C155.62 187.223 156.69 179.55 157.15 171.73C157.19 171.08 157.09 170.1 156.73 169.52C156.437 169.053 156.567 168.82 157.12 168.82C162.013 168.853 166.707 167.1 171.2 163.56C171.384 163.413 171.617 163.341 171.852 163.36C172.088 163.379 172.309 163.486 172.47 163.66L179.51 171.3C179.837 171.66 179.877 172.047 179.63 172.46C178.57 174.247 177.497 176.51 176.41 179.25C174.517 184.057 172.98 189.317 171.8 195.03C170.58 200.93 169.407 206.587 168.28 212C166.47 220.69 164.89 229.73 164.11 238.28C163.703 242.673 163.21 246.477 162.63 249.69C160.62 260.71 159.81 270.97 161.73 281.85C161.943 283.043 162.667 283.517 163.9 283.27C164.168 283.216 164.41 283.073 164.588 282.863C164.765 282.652 164.868 282.387 164.88 282.11C165.267 272.423 165.613 262.673 165.92 252.86C166.05 248.77 166.5 244.59 167.38 240.47C169.667 229.81 171.913 219.533 174.12 209.64C174.86 206.32 176.343 200.827 178.57 193.16C180.063 188.027 181.2 181.907 181.98 174.8C182.033 174.327 182.257 174.223 182.65 174.49C186.577 177.163 190.867 179.023 195.52 180.07C195.973 180.177 196.08 180.43 195.84 180.83C192.62 186.243 190.23 192.073 188.67 198.32C186.423 207.333 184.363 216.927 182.49 227.1C180.9 235.77 180.82 244.4 179.36 253.11C177.847 262.083 177.807 271.32 179.24 280.82C179.38 281.78 179.933 282.323 180.9 282.45C181.033 282.463 181.157 282.48 181.27 282.5C181.43 282.52 181.592 282.506 181.745 282.459C181.899 282.413 182.042 282.335 182.164 282.231C182.286 282.126 182.386 281.998 182.455 281.853C182.525 281.708 182.564 281.551 182.57 281.39C182.897 270.777 183.077 260.97 183.11 251.97C183.123 249.677 183.327 247.347 183.72 244.98C183.773 244.667 183.957 244.543 184.27 244.61C188.097 245.443 191.82 245.657 195.44 245.25C195.787 245.21 195.95 245.367 195.93 245.72L195.68 249.23C195.66 249.563 195.483 249.753 195.15 249.8C192.237 250.173 189.343 250.383 186.47 250.43ZM82.4401 189.18C81.6501 201.69 79.6801 214.43 79.5801 226.88C79.5468 231.84 79.1801 236.53 78.4801 240.95C76.7601 251.86 76.2701 261.91 76.9101 272.84C76.9568 273.693 77.4135 274.193 78.2801 274.34C78.4555 274.369 78.6348 274.362 78.8076 274.321C78.9805 274.28 79.1436 274.206 79.2876 274.102C79.4316 273.998 79.5537 273.866 79.6468 273.715C79.7399 273.564 79.8022 273.395 79.8301 273.22C81.2601 264.16 81.8501 255.77 81.8401 246.27C81.8335 239.783 82.3368 233.323 83.3501 226.89C85.4701 213.45 86.6201 199.92 88.7301 186.51C89.9768 178.563 90.4501 170.49 90.1501 162.29C90.1425 162.075 90.0865 161.865 89.9865 161.675C89.8864 161.485 89.7449 161.32 89.5726 161.193C89.4002 161.066 89.2016 160.98 88.9915 160.941C88.7815 160.903 88.5656 160.912 88.3601 160.97C87.5735 161.183 87.0668 161.737 86.8401 162.63C84.4335 171.943 82.9668 180.793 82.4401 189.18ZM116.48 281.9C116.486 282.002 116.523 282.099 116.585 282.181C116.647 282.263 116.733 282.325 116.83 282.36C117.437 282.58 118.057 282.63 118.69 282.51C118.827 282.484 118.953 282.417 119.05 282.316C119.147 282.216 119.21 282.088 119.23 281.95C120.73 272.057 121.593 262.287 121.82 252.64C121.99 245.52 123.32 238.54 124.69 231.71C125.67 226.817 126.647 221.657 127.62 216.23C129.407 206.29 131.467 196.27 133.8 186.17C134.507 183.123 135.337 176.947 136.29 167.64C136.323 167.321 136.256 166.997 136.1 166.71C135.647 165.897 134.97 165.587 134.07 165.78C133.84 165.829 133.625 165.935 133.445 166.089C133.265 166.243 133.126 166.439 133.04 166.66C129.953 174.827 127.777 183.287 126.51 192.04C124.78 204.02 122.18 216.15 121.07 228.1C120.363 235.78 119.387 243.29 118.14 250.63C117.06 257.023 116.44 262.187 116.28 266.12C116.08 271.333 116.147 276.593 116.48 281.9ZM110.17 168.52C107.31 177.907 105.423 187.553 104.51 197.46C103.84 204.74 102.43 211.88 101.8 219.18C100.78 230.96 99.8701 243.27 97.9401 255.34C96.8201 262.327 96.6968 270 97.5701 278.36C97.6101 278.707 97.7768 278.987 98.0701 279.2C98.5168 279.527 99.0235 279.61 99.5901 279.45C99.7853 279.395 99.9626 279.29 100.105 279.146C100.247 279.003 100.348 278.825 100.4 278.63C100.773 277.19 101.03 275.7 101.17 274.16C101.923 266.14 102.353 258.62 102.46 251.6C102.533 247.033 102.947 242.187 103.7 237.06C104.413 232.18 105.223 227.067 106.13 221.72C107.11 215.94 108.097 210.087 109.09 204.16C109.743 200.253 110.463 196.167 111.25 191.9C112.81 183.447 113.71 175.37 113.95 167.67C113.958 167.397 113.889 167.127 113.752 166.891C113.615 166.655 113.415 166.461 113.174 166.332C112.933 166.204 112.661 166.145 112.388 166.162C112.115 166.179 111.853 166.272 111.63 166.43C110.93 166.923 110.443 167.62 110.17 168.52Z" fill="white"/>
<path d="M82.4398 189.18C82.9664 180.793 84.4331 171.943 86.8398 162.63C87.0664 161.737 87.5731 161.183 88.3598 160.97C88.5653 160.912 88.7811 160.903 88.9912 160.941C89.2012 160.98 89.3999 161.066 89.5722 161.193C89.7445 161.32 89.8861 161.485 89.9861 161.675C90.0862 161.865 90.1421 162.075 90.1498 162.29C90.4498 170.49 89.9764 178.563 88.7298 186.51C86.6198 199.92 85.4698 213.45 83.3498 226.89C82.3364 233.323 81.8331 239.783 81.8398 246.27C81.8498 255.77 81.2598 264.16 79.8298 273.22C79.8018 273.395 79.7395 273.564 79.6464 273.715C79.5533 273.866 79.4313 273.998 79.2873 274.102C79.1433 274.206 78.9801 274.28 78.8073 274.321C78.6344 274.362 78.4551 274.369 78.2798 274.34C77.4131 274.193 76.9564 273.693 76.9098 272.84C76.2698 261.91 76.7598 251.86 78.4798 240.95C79.1798 236.53 79.5464 231.84 79.5798 226.88C79.6798 214.43 81.6498 201.69 82.4398 189.18Z" fill="#4BA35A"/>
<path d="M234.73 183.77C230.93 177.243 229.293 171.433 229.82 166.34C229.866 165.887 230.033 165.48 230.32 165.12C230.368 165.056 230.434 165.008 230.51 164.981C230.586 164.954 230.668 164.95 230.747 164.969C230.826 164.988 230.898 165.029 230.955 165.088C231.012 165.146 231.052 165.22 231.07 165.3C232.33 171.14 234.103 176.9 236.39 182.58C236.636 183.193 236.476 183.67 235.91 184.01C235.723 184.123 235.523 184.17 235.31 184.15C235.056 184.117 234.863 183.99 234.73 183.77Z" fill="#4BA35A"/>
<path d="M116.48 281.9C116.147 276.593 116.08 271.333 116.28 266.12C116.44 262.187 117.06 257.023 118.14 250.63C119.387 243.29 120.363 235.78 121.07 228.1C122.18 216.15 124.78 204.02 126.51 192.04C127.777 183.287 129.953 174.827 133.04 166.66C133.126 166.439 133.265 166.243 133.445 166.089C133.624 165.935 133.839 165.829 134.07 165.78C134.97 165.587 135.647 165.897 136.1 166.71C136.256 166.997 136.322 167.321 136.29 167.64C135.337 176.947 134.507 183.123 133.8 186.17C131.467 196.27 129.407 206.29 127.62 216.23C126.647 221.657 125.67 226.817 124.69 231.71C123.32 238.54 121.99 245.52 121.82 252.64C121.593 262.287 120.73 272.057 119.23 281.95C119.209 282.088 119.146 282.216 119.05 282.316C118.953 282.417 118.827 282.484 118.69 282.51C118.057 282.63 117.437 282.58 116.83 282.36C116.732 282.325 116.647 282.263 116.585 282.181C116.523 282.099 116.486 282.002 116.48 281.9Z" fill="#4BA35A"/>
<path d="M110.17 168.52C110.443 167.62 110.93 166.923 111.63 166.43C111.853 166.272 112.115 166.179 112.388 166.162C112.661 166.145 112.933 166.204 113.174 166.332C113.414 166.461 113.615 166.655 113.752 166.891C113.889 167.127 113.958 167.397 113.95 167.67C113.71 175.37 112.81 183.447 111.25 191.9C110.463 196.167 109.743 200.253 109.09 204.16C108.097 210.087 107.11 215.94 106.13 221.72C105.223 227.067 104.413 232.18 103.7 237.06C102.947 242.187 102.533 247.033 102.46 251.6C102.353 258.62 101.923 266.14 101.17 274.16C101.03 275.7 100.773 277.19 100.4 278.63C100.348 278.825 100.246 279.002 100.104 279.146C99.9625 279.29 99.7852 279.395 99.59 279.45C99.0234 279.61 98.5167 279.527 98.07 279.2C97.7767 278.987 97.61 278.707 97.57 278.36C96.6967 270 96.82 262.327 97.94 255.34C99.87 243.27 100.78 230.96 101.8 219.18C102.43 211.88 103.84 204.74 104.51 197.46C105.423 187.553 107.31 177.907 110.17 168.52Z" fill="#4BA35A"/>
<path d="M198.49 181.2C198.517 180.987 198.633 180.893 198.84 180.92L205.25 181.84C205.333 181.855 205.407 181.899 205.459 181.963C205.51 182.028 205.536 182.109 205.53 182.19C205.183 186.697 206.56 190.543 209.66 193.73C209.698 193.77 209.724 193.82 209.735 193.874C209.746 193.928 209.741 193.984 209.721 194.035C209.701 194.087 209.667 194.132 209.622 194.164C209.578 194.197 209.525 194.216 209.47 194.22L206.19 194.41C205.85 194.43 205.55 194.33 205.29 194.11L199.85 189.69C199.583 189.477 199.337 189.5 199.11 189.76C198.677 190.273 198.66 190.803 199.06 191.35C200.627 193.517 202.48 194.94 204.62 195.62C204.813 195.68 204.877 195.807 204.81 196L202.81 201.52C202.797 201.558 202.776 201.592 202.749 201.622C202.722 201.652 202.689 201.675 202.653 201.692C202.617 201.709 202.577 201.718 202.537 201.72C202.497 201.721 202.457 201.714 202.42 201.7C200.027 200.733 197.623 199.947 195.21 199.34C194.89 199.26 194.777 199.063 194.87 198.75C196.53 193.25 197.737 187.4 198.49 181.2Z" fill="white"/>
<path d="M201.73 204.61L200.07 211.17C200.059 211.214 200.038 211.256 200.01 211.292C199.981 211.328 199.946 211.357 199.905 211.378C199.864 211.399 199.819 211.411 199.774 211.413C199.728 211.415 199.682 211.407 199.64 211.39L192.36 208.46C192.285 208.431 192.224 208.374 192.189 208.302C192.153 208.23 192.147 208.147 192.17 208.07L194.42 200.28C194.432 200.231 194.456 200.186 194.49 200.149C194.523 200.111 194.565 200.082 194.612 200.063C194.658 200.045 194.709 200.038 194.759 200.042C194.809 200.047 194.857 200.063 194.9 200.09L201.59 204.26C201.647 204.296 201.692 204.349 201.717 204.412C201.742 204.475 201.746 204.544 201.73 204.61Z" fill="white"/>
<path d="M191.75 210.44L199.06 213.92C199.128 213.952 199.184 214.006 199.218 214.073C199.253 214.14 199.264 214.216 199.25 214.29L198.39 218.88C198.373 218.967 198.323 219.044 198.25 219.094C198.177 219.145 198.088 219.165 198 219.15L189.98 217.75C189.935 217.742 189.892 217.724 189.854 217.699C189.816 217.674 189.783 217.641 189.758 217.603C189.732 217.564 189.715 217.521 189.707 217.476C189.699 217.431 189.7 217.385 189.71 217.34L191.27 210.67C191.282 210.62 191.304 210.573 191.336 210.534C191.368 210.494 191.409 210.461 191.455 210.439C191.501 210.417 191.551 210.406 191.603 210.406C191.654 210.406 191.704 210.418 191.75 210.44Z" fill="white"/>
<path d="M189.09 219.51C189.097 219.476 189.111 219.445 189.13 219.416C189.15 219.388 189.174 219.364 189.203 219.345C189.232 219.327 189.264 219.314 189.298 219.308C189.332 219.302 189.366 219.303 189.4 219.31L189.82 219.4C190.944 219.647 192.049 219.927 193.072 220.223C194.096 220.519 195.017 220.826 195.783 221.126C196.549 221.426 197.146 221.713 197.538 221.971C197.931 222.229 198.111 222.453 198.07 222.63L196.85 228.18C196.811 228.357 196.552 228.484 196.087 228.553C195.622 228.622 194.96 228.633 194.139 228.583C193.318 228.534 192.355 228.426 191.303 228.266C190.251 228.106 189.132 227.897 188.01 227.65L187.59 227.55C187.556 227.543 187.524 227.529 187.496 227.51C187.468 227.49 187.444 227.465 187.425 227.437C187.407 227.408 187.394 227.376 187.388 227.342C187.382 227.308 187.382 227.273 187.39 227.24L189.09 219.51Z" fill="white"/>
<path d="M187.19 229.29L196.3 231.18C196.377 231.197 196.445 231.24 196.493 231.302C196.54 231.364 196.564 231.442 196.56 231.52L196.35 235.22C196.349 235.264 196.339 235.308 196.32 235.348C196.302 235.388 196.276 235.424 196.243 235.454C196.21 235.484 196.172 235.507 196.13 235.522C196.089 235.537 196.044 235.543 196 235.54L186.12 235.09C186.073 235.088 186.027 235.076 185.985 235.054C185.943 235.033 185.906 235.003 185.876 234.966C185.847 234.929 185.826 234.886 185.814 234.84C185.803 234.794 185.802 234.746 185.81 234.7L186.8 229.55C186.809 229.507 186.825 229.467 186.85 229.43C186.874 229.394 186.905 229.363 186.941 229.339C186.977 229.315 187.018 229.298 187.061 229.289C187.104 229.281 187.148 229.281 187.19 229.29Z" fill="white"/>
<path d="M186.06 236.62C188.98 237.97 192.55 238.45 195.73 238.23C195.776 238.227 195.822 238.234 195.865 238.25C195.908 238.266 195.947 238.291 195.98 238.323C196.013 238.355 196.039 238.393 196.056 238.436C196.073 238.478 196.081 238.524 196.08 238.57L195.94 243.29C195.933 243.497 195.827 243.58 195.62 243.54C192.213 242.833 188.487 242.73 184.44 243.23C184.379 243.238 184.318 243.231 184.26 243.21C184.203 243.189 184.151 243.155 184.11 243.109C184.069 243.064 184.039 243.01 184.023 242.951C184.008 242.892 184.007 242.83 184.02 242.77L185.33 236.97C185.423 236.557 185.667 236.44 186.06 236.62Z" fill="white"/>
</svg>
